<svg height="512" viewBox="0 0 512 512" width="512" xmlns="http://www.w3.org/2000/svg"><g id="Outline"><path d="m258.613 479.981a191.994 191.994 0 0 1 -194.594-194.594l-16-.213a208 208 0 0 0 207.942 210.826c.952 0 1.91-.007 2.865-.02 55.819-.739 108-23.449 146.941-63.947l-11.534-11.09a190.4 190.4 0 0 1 -135.62 59.038z"/><path d="m448 80h16v16h-16z"/><path d="m80 288a176 176 0 0 0 300.451 124.451 8 8 0 0 0 0-11.314l-105.137-105.137h148.686a8 8 0 0 0 8-8 176 176 0 0 0 -176-176 8 8 0 0 0 -8 8v160h-160a8 8 0 0 0 -8 8zm168 19.314v140.491a158.677 158.677 0 0 1 -99.342-41.148zm16 140.491v-140.492l99.343 99.343a158.675 158.675 0 0 1 -99.343 41.149zm11.314-167.805 99.342-99.342a158.672 158.672 0 0 1 41.149 99.342zm88.028-110.657-99.342 99.343v-140.486a158.677 158.677 0 0 1 99.342 41.143zm-126.656 126.657-99.342 99.342a158.672 158.672 0 0 1 -41.144-99.342z"/><path d="m118.742 74.946a176.353 176.353 0 0 0 -19.193 16.612 8 8 0 0 0 0 11.309l118.79 118.79a8 8 0 0 0 13.661-5.657v-168a8 8 0 0 0 -8-8c-2.258 0-4.523.045-6.779.131l-9.179-26.731-15.133 5.2 11.944 34.778a8 8 0 1 1 -15.132 5.2l-7.8-22.7a8 8 0 0 0 -4.054-4.589l-7.764-3.8a33.115 33.115 0 0 1 -15.081-15.029l-14.349 7.076a49.182 49.182 0 0 0 22.4 22.328l4.787 2.34 1.527 4.445a174.587 174.587 0 0 0 -37.319 17.251l-8.709-10.115a46.826 46.826 0 0 1 -9.822-42.485l-15.475-4.065a62.825 62.825 0 0 0 13.175 56.994zm78.565 5.031a23.957 23.957 0 0 0 18.693-9v125.71l-99.338-99.338a160.928 160.928 0 0 1 16.5-13.077 159.03 159.03 0 0 1 41.436-20.49 24.041 24.041 0 0 0 22.709 16.195z"/><path d="m478.812 373.967-2.5-8.275a8 8 0 0 0 -3.878-4.739l-21.152-11.342a8 8 0 1 1 7.562-14.1l38.427 20.606 7.561-14.1-10.52-5.642a178.2 178.2 0 0 0 1.688-24.375 8 8 0 0 0 -8-8h-24.623c.471-6.1.681-12.244.612-18.369a206.622 206.622 0 0 0 -38.211-117.814 8.089 8.089 0 0 1 1.5-10.811l55.611-46.341a35.886 35.886 0 0 0 13.07-25.881 35.24 35.24 0 0 0 -62.278-24.105l-46.681 56.035a8.089 8.089 0 0 1 -10.81 1.512 206.624 206.624 0 0 0 -117.821-38.215c-3.557-.042-7.149.011-10.687.153l.636 15.987c3.269-.13 6.586-.179 9.873-.142a190.734 190.734 0 0 1 108.746 35.269 24.17 24.17 0 0 0 32.349-4.317l46.688-56.037a19.24 19.24 0 0 1 34 13.179 19.869 19.869 0 0 1 -7.329 14.271l-55.614 46.345a24.167 24.167 0 0 0 -4.308 32.35 190.727 190.727 0 0 1 35.268 108.741c.068 6.069-.165 12.16-.671 18.19h-127.32a8 8 0 0 0 -5.657 13.657l55.032 55.032a24.1 24.1 0 0 0 12.634 21.471l19.057 10.22 32.067 32.067a7.98 7.98 0 0 0 10.467.724 63.039 63.039 0 0 0 35.653 11.129c1.969 0 3.945-.094 5.917-.284l14.649-1.25-1.359-15.942-14.737 1.258a46.971 46.971 0 0 1 -29.046-6.777 175.637 175.637 0 0 0 19.323-28.029 48.73 48.73 0 0 0 28.037 15.4l2.715-15.768a32.752 32.752 0 0 1 -25.94-22.941zm.356-45.714-12.762-6.843a24.1 24.1 0 0 0 -3.164-1.41h16.558c-.133 2.759-.356 5.511-.632 8.253zm-40.515 91.086-99.34-99.339h107.609a23.99 23.99 0 0 0 -3.2 43.713l18.23 9.775 1.54 5.1c.255.844.537 1.673.833 2.5a159.7 159.7 0 0 1 -25.672 38.251z"/><path d="m56 264h168a8 8 0 0 0 5.657-13.657l-118.79-118.79a8 8 0 0 0 -11.307-.006c-3.1 3.092-6.095 6.34-8.971 9.682l-72.141-34.465-6.9 14.437 87.833 41.962a8 8 0 1 1 -6.759 14.5l-21.749-10.136a8.011 8.011 0 0 0 -6.117-.266l-8.121 2.958a32.754 32.754 0 0 1 -33.908-7.027l-11 11.621a48.668 48.668 0 0 0 50.38 10.44l.825-.3a173.823 173.823 0 0 0 -12 38.912l-6.368-.352a46.844 46.844 0 0 1 -30.055-13.2l-11.156 11.472a62.835 62.835 0 0 0 40.325 17.7l5.091.282c-.494 5.394-.769 10.823-.769 16.233a8 8 0 0 0 8 8zm39.969-69.587a23.984 23.984 0 0 0 22.368-32.762l86.35 86.349h-140.487c.243-4.906.709-9.8 1.394-14.633a158.026 158.026 0 0 1 13.147-44.521l7.128 3.322a23.86 23.86 0 0 0 10.1 2.245z"/><path d="m324 184a12 12 0 1 0 -12-12 12.013 12.013 0 0 0 12 12z"/><path d="m280 200h16v16h-16z"/><path d="m294.982 175.135a6.8 6.8 0 0 1 8.153-8.153l1.73-15.906a22.714 22.714 0 0 0 -25.789 25.789z"/><path d="m340 240a12 12 0 1 0 12 12 12.013 12.013 0 0 0 -12-12z"/><path d="m376 248h16v16h-16z"/><path d="m345.765 225.994 12.47 10.024a6.8 6.8 0 0 1 11.53 0l12.47-10.024a22.713 22.713 0 0 0 -36.47 0z"/><path d="m396 328a12 12 0 1 0 12 12 12.013 12.013 0 0 0 -12-12z"/><path d="m416 368h16v16h-16z"/><path d="m316 408a12 12 0 1 0 -12-12 12.013 12.013 0 0 0 12 12z"/><path d="m280 360h16v16h-16z"/><path d="m295.069 425.081a26.7 26.7 0 0 0 2.88-.157l-1.73-15.906a6.8 6.8 0 0 1 -8.152-8.153l-15.906-1.73a23.54 23.54 0 0 0 6.409 19.38 23.125 23.125 0 0 0 16.499 6.566z"/><path d="m124 312a12 12 0 1 0 12 12 12.013 12.013 0 0 0 -12-12z"/><path d="m136 344h16v16h-16z"/><path d="m176.067 335.135a6.8 6.8 0 0 1 8.152-8.153l1.73-15.906a22.714 22.714 0 0 0 -25.788 25.789z"/><path d="m220 400a12 12 0 1 0 12 12 12.013 12.013 0 0 0 -12-12z"/><path d="m216 360h16v16h-16z"/><path d="m182.57 390.57a23.537 23.537 0 0 0 -6.409 19.379l15.906-1.73a6.8 6.8 0 0 1 8.152-8.152l1.73-15.906a23.539 23.539 0 0 0 -19.379 6.409z"/><path d="m148 240a12 12 0 1 0 -12-12 12.013 12.013 0 0 0 12 12z"/><path d="m80 216h16v16h-16z"/><path d="m130.515 209.43a23.542 23.542 0 0 0 6.409-19.379l-15.906 1.73a6.8 6.8 0 0 1 -8.153 8.152l-1.73 15.906a26.707 26.707 0 0 0 2.881.157 23.126 23.126 0 0 0 16.499-6.566z"/><path d="m196 120a12 12 0 1 0 -12-12 12.013 12.013 0 0 0 12 12z"/><path d="m184 136h16v16h-16z"/><path d="m150.57 93.485a23.54 23.54 0 0 0 -6.409 19.38l15.906-1.73a6.8 6.8 0 0 1 8.152-8.153l1.73-15.906a23.542 23.542 0 0 0 -19.379 6.409z"/></g></svg>