<svg id="Capa_1" enable-background="new 0 0 512 512" height="512" viewBox="0 0 512 512" width="512" xmlns="http://www.w3.org/2000/svg"><g><g><path d="m502 334.22h-16.85v-63.37c0-5.523-4.478-10-10-10h-107.961c9.821-14.053 11.218-32.589 3.538-47.931-14.607-29.178-55.414-34.578-77.087-10.106l-46.906 52.956-46.905-52.956c-21.674-24.47-62.48-19.071-77.087 10.106-7.682 15.343-6.282 33.877 3.537 47.931h-116.279c-5.522 0-10 4.477-10 10v73.37c0 5.523 4.478 10 10 10h16.85v53.37h-16.85c-5.522 0-10 4.477-10 10v73.37c0 5.523 4.478 10 10 10h465.15c5.522 0 10-4.477 10-10v-63.37h16.85c5.522 0 10-4.477 10-10v-73.37c0-5.523-4.478-10-10-10zm-36.85 0h-178.4v-53.37h178.4zm-198.404-53.37v200.105h-42.997l.001-200.105zm41.864-64.777c12.458-14.065 35.829-10.985 44.231 5.799 8.83 17.634-4.425 38.978-24.075 38.978h-59.817zm-166.816 32.002c-4.94-8-5.378-17.795-1.168-26.203 8.402-16.783 31.771-19.866 44.231-5.799l39.66 44.777h-59.816c-9.402 0-17.966-4.776-22.907-12.775zm-121.794 32.775h183.749v53.37h-183.749zm26.85 73.37h156.899v53.37h-156.899zm-26.85 73.37h183.749v53.37h-183.749zm472-20h-70.31c-5.522 0-10 4.477-10 10s4.478 10 10 10h43.46v53.37h-178.404v-53.37h46.974c5.522 0 10-4.477 10-10s-4.478-10-10-10h-46.974v-53.37h205.254z"/><path d="m154.561 100.618h96.049c.327 10.057 2.711 19.601 7.033 28.189h-53.74c-5.522 0-10 4.477-10 10s4.478 10 10 10h69.442c11.93 10.156 27.34 15.663 44.358 15.663 20.223 0 40.381-7.805 56.761-21.979 16.352-14.148 27.085-33.041 30.225-53.198 3.255-20.904-1.973-40.615-14.721-55.501-12.566-14.672-30.851-22.752-51.488-22.752-20.223 0-40.381 7.805-56.761 21.978-14.827 12.829-25.013 29.564-29.128 47.6h-98.031c-5.522 0-10 4.477-10 10s4.478 10 10.001 10zm183.919-69.578c14.701 0 27.592 5.597 36.295 15.761 8.888 10.378 12.492 24.376 10.15 39.415-5.003 32.122-35.159 58.254-67.224 58.254-14.701 0-27.591-5.597-36.295-15.761-6.607-7.716-10.288-17.434-10.783-28.091h6.676c5.522 0 10-4.477 10-10s-4.478-10-10-10h-4.044c8.56-28.021 36.104-49.578 65.225-49.578z"/><path d="m184.78 55.327h48.356c5.522 0 10-4.477 10-10s-4.478-10-10-10h-48.356c-5.522 0-10 4.477-10 10s4.478 10 10 10z"/><path d="m338.003 112.62c1.965 2.058 4.598 3.095 7.234 3.095 2.481 0 4.968-.918 6.904-2.767 3.995-3.814 4.142-10.144.328-14.139l-13.148-13.772 8.963-30.334c1.565-5.296-1.46-10.858-6.756-12.424-5.301-1.565-10.859 1.46-12.424 6.757l-10.604 35.886c-1.015 3.434-.116 7.148 2.356 9.739z"/><path d="m387.41 413.76c-2.095-5.029-8.021-7.497-13.061-5.41-5.034 2.085-7.488 8.028-5.41 13.06 2.079 5.035 8.029 7.499 13.061 5.41 5.048-2.096 7.479-8.013 5.41-13.06z"/><path d="m100.12 94.44c2.068 5.045 8.039 7.483 13.06 5.41 5.033-2.078 7.504-8.028 5.41-13.06-2.094-5.031-8.019-7.497-13.06-5.41-5.023 2.08-7.502 8.037-5.41 13.06z"/></g></g></svg>